<svg xmlns="http://www.w3.org/2000/svg" width="55.743" height="55" viewBox="0 0 55.743 55"><defs><style>.a{fill:#fff;}</style></defs><g transform="translate(-1482.413 -1226.368)"><path class="a" d="M1537.929,1249.7l-9.33-12.119a1.093,1.093,0,0,0-1.453-.255l-6.024,3.831h-7.856a1.058,1.058,0,0,0-.3.05l-6.092,1.753-6.32-1.729-6.142-3.9a1.092,1.092,0,0,0-1.437.235l-10.319,12.782a1.092,1.092,0,0,0,.138,1.515l5.408,4.655,4.853,6.539a8.868,8.868,0,0,1,2.383,7.074,3.861,3.861,0,0,0,3.863,3.862h.041c0,.027,0,.052,0,.079a3.863,3.863,0,0,0,3.863,3.863,3.893,3.893,0,0,0,.6-.048,3.862,3.862,0,0,0,6.573,2.352l.591-.59.248.2a206.556,206.556,0,0,1,9.338-3.965,3.861,3.861,0,0,1,3.921-3.921,3.856,3.856,0,0,1,3.921-3.921,3.867,3.867,0,0,0,.508-4.835l3.543-7.421,5.327-4.583A1.094,1.094,0,0,0,1537.929,1249.7Zm-43.866-10.006,4.416,2.808-9.607,11.7-3.849-3.314Zm.623,24.814,1.333-1.333c.04-.04.083-.078.126-.114a1.677,1.677,0,0,1,.911-.37h.028c.048,0,.095-.006.143-.006a1.664,1.664,0,0,1,1.2.525,1.717,1.717,0,0,1-.074,2.378l-1.292,1.292a1.677,1.677,0,0,1-2.371-2.371Zm3.429,6.8a1.677,1.677,0,0,1,0-2.371l2.584-2.584a1.7,1.7,0,0,1,1.906-.33,1.671,1.671,0,0,1,.924,1.732,1.772,1.772,0,0,1-.5,1.01l-2.544,2.543a1.677,1.677,0,0,1-2.371,0Zm3.9,3.94a1.677,1.677,0,0,1,0-2.371l2.584-2.584a1.7,1.7,0,0,1,2.027-.266,1.667,1.667,0,0,1,.8,1.694,1.764,1.764,0,0,1-.5.984l-2.543,2.543a1.678,1.678,0,0,1-2.372,0Zm4.445,3.436a1.68,1.68,0,0,1,0-2.371l1.333-1.332a1.486,1.486,0,0,1,.126-.114l0,0a1.671,1.671,0,0,1,.743-.345l.019,0c.047-.008.095-.015.143-.019l.057,0c.039,0,.078-.005.118-.005a1.669,1.669,0,0,1,1.2.526,1.608,1.608,0,0,1,.108.127,1.73,1.73,0,0,1-.189,2.257l-1.286,1.286A1.679,1.679,0,0,1,1506.462,1278.692Zm20.39-12.2a1.678,1.678,0,0,1-2.371,0c-.024-.024-.049-.046-.074-.067l-7.028-7.1a1.093,1.093,0,0,0-1.554,1.538l7.1,7.178,0,0a1.677,1.677,0,0,1-2.372,2.371l-4.752-4.8a1.093,1.093,0,1,0-1.554,1.538l4.68,4.728a.9.9,0,0,0,.077.086,1.677,1.677,0,0,1-2.372,2.371l-2.594-2.621a1.093,1.093,0,0,0-1.554,1.537l2.521,2.548c.024.029.05.058.077.086a1.676,1.676,0,0,1-2.37,2.371,2.635,2.635,0,0,0-.248-.2c-.072-.054-.091-.092-.055-.179s.09-.168.126-.256.073-.2.1-.3a3.939,3.939,0,0,0,.142-1.682,3.823,3.823,0,0,0-3.259-3.29,3.9,3.9,0,0,0-.936-3.518,3.832,3.832,0,0,0-2.753-1.208h-.115a3.826,3.826,0,0,0-3.787-3.94,3.956,3.956,0,0,0-.932.1,3.849,3.849,0,0,0-6.387-2.287l-4.225-5.693,10.108-12.315,3.221.881-4.207,7.424a3.864,3.864,0,0,0,1.456,5.265c.056.032.113.063.17.091l.014.007a3.879,3.879,0,0,0,.463.194,3.861,3.861,0,0,0,4.618-1.748l2.734-4.825,4.882.347,13,13A1.679,1.679,0,0,1,1526.852,1266.494Zm.453-5.01-12.2-12.2q-.034-.034-.072-.066a1.094,1.094,0,0,0-.623-.251l-5.977-.424a1.113,1.113,0,0,0-1.029.552l-3.074,5.425a1.677,1.677,0,0,1-2.917-1.654l4.1-7.242,1.662-.478.033-.011,6.206-1.793h7.5l9.361,11.9Zm4.41-7.952-8.657-11.011,4.418-2.81,8.089,10.508Z"/><path class="a" d="M1516.184,1239.109a1.092,1.092,0,0,0,.773-.32l7.466-7.466a1.093,1.093,0,0,0-1.546-1.546l-7.466,7.466a1.093,1.093,0,0,0,.773,1.866Z"/><path class="a" d="M1503.612,1238.789a1.093,1.093,0,0,0,1.546-1.546l-7.466-7.466a1.093,1.093,0,0,0-1.546,1.546Z"/><path class="a" d="M1510.285,1239.109a1.093,1.093,0,0,0,1.093-1.093v-6.179a1.093,1.093,0,0,0-2.186,0v6.179A1.093,1.093,0,0,0,1510.285,1239.109Z"/><path class="a" d="M1509.276,1227.876a1.092,1.092,0,1,0,.4-1.327A1.1,1.1,0,0,0,1509.276,1227.876Z"/></g></svg>