<svg xmlns="http://www.w3.org/2000/svg" width="48.047" height="50" viewBox="0 0 48.047 50"><defs><style>.a{fill:#fff;}</style></defs><g transform="translate(-1120.811 -1230.604)"><path class="a" d="M1165.928,1232.557h-6.836v-.977a.976.976,0,0,0-.976-.976h-26.563a.977.977,0,0,0-.977.976v.977h-6.835a2.933,2.933,0,0,0-2.93,2.929v10.262a12.8,12.8,0,0,0,12.786,12.785h1.873a14.271,14.271,0,0,0,4.093,2.505c0,.012,0,.023,0,.034v5.86h-3.711a2.933,2.933,0,0,0-2.93,2.929v7.813a2.933,2.933,0,0,0,2.93,2.93h17.969a2.933,2.933,0,0,0,2.929-2.93v-7.813a2.932,2.932,0,0,0-2.929-2.929h-3.711v-5.86c0-.011,0-.022,0-.034a14.283,14.283,0,0,0,4.093-2.505h1.873a12.8,12.8,0,0,0,12.786-12.785v-10.262A2.933,2.933,0,0,0,1165.928,1232.557Zm-6.836,5.859H1163v7.332a6.974,6.974,0,0,1-4.631,6.532,14.185,14.185,0,0,0,.725-4.489Zm-26.562-5.859h24.609v1.953H1150.5a.977.977,0,1,0,0,1.953h6.636v11.328a12.3,12.3,0,1,1-24.609,0Zm-1.229,19.723a6.973,6.973,0,0,1-4.631-6.532v-7.332h3.906v9.375A14.189,14.189,0,0,0,1131.3,1252.28Zm-8.537-6.532v-10.262a.977.977,0,0,1,.977-.976h6.835v1.953h-4.882a.976.976,0,0,0-.977.977v8.308a8.89,8.89,0,0,0,7.554,8.779,14.247,14.247,0,0,0,1.344,2.053h-.018A10.844,10.844,0,0,1,1122.764,1245.748Zm32.031,24.113v7.813a.977.977,0,0,1-.976.976H1135.85a.978.978,0,0,1-.977-.976v-7.813a.977.977,0,0,1,.977-.976h17.969A.977.977,0,0,1,1154.8,1269.861Zm-6.64-2.929h-6.641v-5.274a14.3,14.3,0,0,0,6.641,0Zm18.75-21.184a10.845,10.845,0,0,1-10.833,10.832h-.018a14.319,14.319,0,0,0,1.344-2.053,8.891,8.891,0,0,0,7.553-8.779v-8.308a.976.976,0,0,0-.976-.977h-4.883v-1.953h6.836a.978.978,0,0,1,.977.976Z"/><path class="a" d="M1146.6,1236.463a.978.978,0,1,0-.69-.286A.984.984,0,0,0,1146.6,1236.463Z"/><path class="a" d="M1147.6,1274.744h-5.534a.977.977,0,0,0,0,1.953h5.534a.977.977,0,1,0,0-1.953Z"/><path class="a" d="M1140,1270.838a.977.977,0,1,0,.691.286A.98.98,0,0,0,1140,1270.838Z"/><path class="a" d="M1142.93,1271.815a.976.976,0,0,0,.977.976h5.761a.977.977,0,1,0,0-1.953h-5.761A.976.976,0,0,0,1142.93,1271.815Z"/><path class="a" d="M1140.643,1247.673l-.654,3.819a.977.977,0,0,0,1.417,1.029l3.429-1.8,3.429,1.8a.977.977,0,0,0,1.417-1.03l-.656-3.818,2.773-2.705a.976.976,0,0,0-.541-1.665l-3.834-.556-1.716-3.474a.976.976,0,0,0-.875-.544h0a.974.974,0,0,0-.875.545l-1.714,3.474-3.834.558a.976.976,0,0,0-.54,1.666Zm2.389-3.068a.979.979,0,0,0,.735-.535l1.065-2.16,1.067,2.16a.975.975,0,0,0,.735.534l2.384.345-1.724,1.682a.98.98,0,0,0-.281.865l.408,2.374-2.132-1.121a.977.977,0,0,0-.909,0l-2.132,1.121.406-2.374a.975.975,0,0,0-.281-.865l-1.725-1.68Z"/></g></svg>