<svg xmlns="http://www.w3.org/2000/svg" width="53.046" height="45" viewBox="0 0 53.046 45"><defs><style>.a{fill:#fff;}</style></defs><g transform="translate(-752.187 -1230.603)"><path class="a" d="M805.233,1261.1v-12.435a3.313,3.313,0,0,0-4.563-3.07,4.166,4.166,0,0,1,.291-6.461,4.352,4.352,0,1,0-7.465,3.036,5.692,5.692,0,0,0-2.035,1.969l-1.185,1.936h-3.07v-1.416a7.023,7.023,0,0,0-4.992-6.713,4.33,4.33,0,0,0,.847-2.577v-.414a4.352,4.352,0,1,0-8.7,0v.414a4.331,4.331,0,0,0,.848,2.577,7.023,7.023,0,0,0-4.992,6.713v1.416h-3.07l-1.185-1.937a5.7,5.7,0,0,0-2.036-1.968,4.532,4.532,0,0,0-7.173,3.425,3.313,3.313,0,0,0-4.563,3.071v2.072a1.036,1.036,0,1,0,2.072,0v-2.072a1.243,1.243,0,1,1,2.486,0v8.774a5.361,5.361,0,0,0,5.355,5.355h.446v2.085h-4.508a3.784,3.784,0,0,1-3.779-3.78v-2.074a1.036,1.036,0,1,0-2.072,0v2.074a5.86,5.86,0,0,0,4.815,5.758v6.673h-3.33a1.036,1.036,0,0,0,0,2.072h12.4a3.526,3.526,0,0,0,3.523-3.522v-11.917a5.152,5.152,0,0,0-1.038-3.106h4.562v15.23a6.042,6.042,0,0,0,11.19,0v-3.937a1.036,1.036,0,1,0-2.072,0v3.937a1.243,1.243,0,0,1-2.487,0v-15.23h2.487v3a1.036,1.036,0,1,0,2.072,0v-3h4.562a5.152,5.152,0,0,0-1.038,3.106v11.917a3.526,3.526,0,0,0,3.523,3.522h12.4a1.036,1.036,0,0,0,0-2.072h-3.33v-6.673A5.86,5.86,0,0,0,805.233,1261.1Zm-3.315-13.678a1.245,1.245,0,0,1,1.243,1.243V1261.1a3.784,3.784,0,0,1-3.78,3.78h-4.507V1262.8h.445a5.362,5.362,0,0,0,5.356-5.355v-8.775A1.244,1.244,0,0,1,801.918,1247.422Zm-5.308-10.568a2.279,2.279,0,1,1-2.28,2.28A2.282,2.282,0,0,1,796.61,1236.854Zm-5.753,11.293a1.034,1.034,0,0,0,.883-.495l1.488-2.432a3.652,3.652,0,0,1,3.095-1.735,2.282,2.282,0,0,1,2.279,2.279v8.393h-4.558v-2.394l1.566-2.474a1.036,1.036,0,0,0-1.751-1.109l-1.422,2.247h-6.354a1.14,1.14,0,1,1,0-2.28Zm-11.235-8.426-.9,2.45-.9-2.45Zm-3.191-4.766a2.279,2.279,0,1,1,4.558,0v.414a2.279,2.279,0,1,1-4.558,0Zm-.726,5.006,2.045,5.575a1.037,1.037,0,0,0,1.946,0l2.042-5.567a4.946,4.946,0,0,1,3.4,4.69v1.56a3.212,3.212,0,0,0-2.053,4.208h-8.742a3.212,3.212,0,0,0-2.053-4.208v-1.56A4.946,4.946,0,0,1,775.705,1239.961Zm-10.026,7.691a1.035,1.035,0,0,0,.884.495h4.773a1.14,1.14,0,1,1,0,2.28h-6.353l-1.422-2.247a1.036,1.036,0,0,0-1.751,1.108l1.566,2.475v2.394h-4.559v-8.393a2.283,2.283,0,0,1,2.28-2.279,3.652,3.652,0,0,1,3.1,1.735Zm-4.869-10.8a2.279,2.279,0,1,1-2.279,2.28A2.282,2.282,0,0,1,760.81,1236.854Zm-1.735,30.1h3.471v5.129a3.5,3.5,0,0,0,.313,1.45h-3.784Zm8.444-6.788v11.917a1.451,1.451,0,0,1-2.9,0v-10.322a1.036,1.036,0,0,0-1.036-1.036H762.1a3.287,3.287,0,0,1-3.284-3.283v-1.211h4.58a1.036,1.036,0,0,0,1.015.828A3.111,3.111,0,0,1,767.519,1260.164Zm10.155,12.124a1.243,1.243,0,0,1-2.487,0v-15.23h2.487Zm-12.226-17.3V1252.5h26.524v2.486Zm24.453,5.179a3.11,3.11,0,0,1,3.107-3.106,1.036,1.036,0,0,0,1.015-.829H798.6v1.211a3.286,3.286,0,0,1-3.283,3.283h-1.481a1.036,1.036,0,0,0-1.036,1.036v10.322a1.451,1.451,0,0,1-2.9,0v-11.917Zm4.659,13.367a3.5,3.5,0,0,0,.314-1.45v-5.129h3.471v6.579Z"/><path class="a" d="M783.269,1263.171a1.036,1.036,0,1,0,.732.3A1.039,1.039,0,0,0,783.269,1263.171Z"/><path class="a" d="M753.223,1255.918a1.034,1.034,0,1,0-.733-.3A1.047,1.047,0,0,0,753.223,1255.918Z"/></g></svg>