<svg xmlns="http://www.w3.org/2000/svg" width="54.171" height="52" viewBox="0 0 54.171 52"><defs><style>.a{fill:#fff;}</style></defs><g transform="translate(-381.608 -1224.815)"><path class="a" d="M435.675,1253.317a21.358,21.358,0,0,0-16.606-18.726V1231.9a3.6,3.6,0,0,0-.869-7.088h-7.618a3.6,3.6,0,0,0-.868,7.088v2.7a21.373,21.373,0,0,0-12.216,7.77c-.026,0-.053,0-.08,0h-7.54a1.058,1.058,0,1,0,0,2.116h6.18a21.261,21.261,0,0,0-1.877,4.067H382.666a1.058,1.058,0,1,0,0,2.116h10.917a21.5,21.5,0,0,0-.525,4.067h-4.679a1.058,1.058,0,0,0,0,2.116h4.713a21.477,21.477,0,0,0,.66,4.067H386.9a1.058,1.058,0,0,0,0,2.116h7.53a21.371,21.371,0,0,0,17.867,13.682q1.048.1,2.1.1a21.425,21.425,0,0,0,11.663-3.447,1.058,1.058,0,0,0-1.154-1.774,19.256,19.256,0,1,1,5.671-5.678,1.058,1.058,0,0,0,1.775,1.152A21.447,21.447,0,0,0,435.675,1253.317ZM409.1,1228.412a1.483,1.483,0,0,1,1.481-1.481H418.2a1.482,1.482,0,1,1,0,2.963h-7.618A1.484,1.484,0,0,1,409.1,1228.412Zm2.729,5.823v-2.225h5.122v2.221A21.57,21.57,0,0,0,411.83,1234.235Z"/><path class="a" d="M428.772,1268.749a1.058,1.058,0,1,0,.748.31A1.06,1.06,0,0,0,428.772,1268.749Z"/><path class="a" d="M414.407,1239.03a16.413,16.413,0,1,0,16.414,16.413A16.432,16.432,0,0,0,414.407,1239.03Zm0,30.71a14.3,14.3,0,1,1,14.3-14.3A14.313,14.313,0,0,1,414.407,1269.74Z"/><path class="a" d="M421.1,1247.254l-5.24,5.24a3.281,3.281,0,0,0-2.9,0l-2.345-2.345a1.058,1.058,0,0,0-1.5,1.5l2.346,2.346a3.288,3.288,0,1,0,5.9,0l5.087-5.087h0l.154-.154a1.058,1.058,0,0,0-1.5-1.5Zm-6.693,9.361a1.172,1.172,0,1,1,1.172-1.172A1.173,1.173,0,0,1,414.407,1256.615Z"/><path class="a" d="M425.72,1254.4h-.98a1.058,1.058,0,0,0,0,2.116h.98a1.058,1.058,0,0,0,0-2.116Z"/><path class="a" d="M404.075,1254.372h-.98a1.058,1.058,0,0,0,0,2.116h.98a1.058,1.058,0,0,0,0-2.116Z"/><path class="a" d="M414.42,1246.169a1.058,1.058,0,0,0,1.058-1.058v-.981a1.058,1.058,0,0,0-2.116,0v.981A1.058,1.058,0,0,0,414.42,1246.169Z"/><path class="a" d="M414.394,1264.717a1.058,1.058,0,0,0-1.058,1.058v.981a1.059,1.059,0,0,0,2.117,0v-.981A1.059,1.059,0,0,0,414.394,1264.717Z"/><path class="a" d="M382.666,1260.913a1.059,1.059,0,1,0,.748.31A1.07,1.07,0,0,0,382.666,1260.913Z"/></g></svg>