<svg xmlns="http://www.w3.org/2000/svg" width="24.455" height="25.578" viewBox="0 0 24.455 25.578"><defs><style>.a{fill:#fff;}</style></defs><g transform="translate(-1064.083 -3277.11)"><path class="a" d="M1084.992,3186.016a1.788,1.788,0,0,0-.893-2.463l.055-.055a1.788,1.788,0,0,0,0-2.529,1.8,1.8,0,0,0-.566-.383l2.376-2.375a1.788,1.788,0,0,0-2.529-2.529l-8.708,8.709a5.467,5.467,0,0,0-1.6,4.466l-6.253,6.254a.559.559,0,0,0,.79.79l6.448-6.448a.558.558,0,0,0,.156-.482,4.362,4.362,0,0,1,1.252-3.79l8.708-8.708a.671.671,0,1,1,.949.948l-5.331,5.331a.559.559,0,0,0,.79.79l1.782-1.781v0a.671.671,0,0,1,.949.949l-1.219,1.218-.009.009,0,0-.857.856a.559.559,0,0,0,.79.79l.867-.866a.671.671,0,0,1,.943.954l-.754.754-.005.005,0,0-.405.405a.559.559,0,0,0,.79.79l.411-.411a.671.671,0,0,1,.945.952l-3.173,3.174a4.364,4.364,0,0,1-3.791,1.252.56.56,0,0,0-.482.157l-2.357,2.357a.559.559,0,0,0,.79.79l2.163-2.163a5.467,5.467,0,0,0,4.467-1.6l3.173-3.174a1.789,1.789,0,0,0-.653-2.945Z" transform="translate(-2.624 106.623)"/><path class="a" d="M1089.27,3172.377a6.463,6.463,0,0,0-10.915,5.8.558.558,0,1,0,1.1-.213,5.346,5.346,0,1,1,6.492,4.179.559.559,0,0,0,.129,1.1.514.514,0,0,0,.129-.016,6.464,6.464,0,0,0,3.069-10.857Z" transform="translate(-2.624 106.623)"/><path class="a" d="M1086.647,3179.684a.559.559,0,0,0,.789,0,3.87,3.87,0,1,0-5.473-5.474.559.559,0,0,0,.79.79,2.753,2.753,0,0,1,3.894,3.894A.557.557,0,0,0,1086.647,3179.684Z" transform="translate(-2.624 106.623)"/></g></svg>