<svg xmlns="http://www.w3.org/2000/svg" width="25.577" height="25.578" viewBox="0 0 25.577 25.578"><defs><style>.a{fill:#fff;}</style></defs><path class="a" d="M1091.664,3310.544a12.789,12.789,0,1,0-3.685,10.287.58.58,0,0,0,0-.818l-1.779-1.779a3.567,3.567,0,0,0,.509-.47.577.577,0,0,0,.015-.728,24.524,24.524,0,0,0-4.132-4.132.579.579,0,0,0-.765.047l-1.229,1.229-4.055-4.055,1.229-1.229a.577.577,0,0,0,.048-.764,24.513,24.513,0,0,0-4.132-4.132.58.58,0,0,0-.729.014,4.241,4.241,0,0,0-1.346,2.675,7.3,7.3,0,0,0,.773,3.736,18.923,18.923,0,0,0,7.912,7.913,7.3,7.3,0,0,0,3.736.772,3.928,3.928,0,0,0,1.129-.276l1.578,1.578a11.622,11.622,0,1,1,1.929-2.253.579.579,0,0,0,.968.635A12.826,12.826,0,0,0,1091.664,3310.544Zm-7.736,7.414c-1.221.113-3.8-.231-7.366-3.8s-3.909-6.145-3.8-7.366a3.037,3.037,0,0,1,.626-1.546c.4.335,1.044.888,1.668,1.511s1.193,1.284,1.526,1.686l-1.269,1.27a.578.578,0,0,0,0,.818l4.873,4.874a.578.578,0,0,0,.818,0l1.27-1.27c.4.333,1.053.893,1.686,1.526s1.176,1.265,1.512,1.669A3.036,3.036,0,0,1,1083.928,3317.958Z" transform="translate(-1066.147 -3298.999)"/></svg>