<svg xmlns="http://www.w3.org/2000/svg" width="25.578" height="18.489" viewBox="0 0 25.578 18.489"><defs><style>.a{fill:#fff;}</style></defs><path class="a" d="M1444.022,3314.987v-16.175a1.149,1.149,0,0,0-.3-.777l-.009-.01a1.153,1.153,0,0,0-.845-.37H1419.6a1.157,1.157,0,0,0-.845.369l-.009.011a1.149,1.149,0,0,0-.3.777v16.175a1.148,1.148,0,0,0,.3.777l.008.009a1.15,1.15,0,0,0,.846.371h23.264a1.152,1.152,0,0,0,.845-.37l.009-.01A1.148,1.148,0,0,0,1444.022,3314.987Zm-19.9-4.728a.58.58,0,0,0-.819.017l-3.7,3.851v-14.455l6.94,7.227-1.874,1.953a.578.578,0,1,0,.834.8l1.843-1.918,2.67,2.781a1.684,1.684,0,0,0,2.438,0l2.67-2.781,6.963,7.252h-21.7l3.753-3.91A.579.579,0,0,0,1424.118,3310.259Zm7.5-.544a.527.527,0,0,1-.768,0l-10.468-10.9h21.7Zm4.308-2.816,6.94-7.227v14.455Z" transform="translate(-1418.444 -3297.655)"/></svg>