<svg xmlns="http://www.w3.org/2000/svg" width="24" height="24" viewBox="0 0 24 24"><defs><style>.a{fill:#fff;}</style></defs><g transform="translate(-1064.311 -3509.621)"><g transform="translate(-2.624 106.623)"><path class="a" d="M1085.186,3403h-12.5a5.755,5.755,0,0,0-5.749,5.749v12.5a5.756,5.756,0,0,0,5.749,5.749h12.5a5.756,5.756,0,0,0,5.749-5.749v-12.5A5.756,5.756,0,0,0,1085.186,3403Zm4.235,18.251a4.24,4.24,0,0,1-4.235,4.236h-12.5a4.24,4.24,0,0,1-4.235-4.236v-12.5a4.239,4.239,0,0,1,4.235-4.234h12.5a4.239,4.239,0,0,1,4.235,4.234Z"/><path class="a" d="M1085.643,3407.385a.922.922,0,1,0,.921.921A.922.922,0,0,0,1085.643,3407.385Z"/><path class="a" d="M1078.935,3409.116a5.883,5.883,0,1,0,5.883,5.882A5.889,5.889,0,0,0,1078.935,3409.116Zm0,10.251A4.369,4.369,0,1,1,1083.3,3415,4.374,4.374,0,0,1,1078.935,3419.367Z"/></g></g></svg>