<svg xmlns="http://www.w3.org/2000/svg" xmlns:xlink="http://www.w3.org/1999/xlink" width="201.319" height="91.821" viewBox="0 0 201.319 91.821"><defs><style>.a{opacity:0.75;mix-blend-mode:multiply;isolation:isolate;}.b{fill:#fff;opacity:0;}.ah,.c{opacity:0.032;}.c{fill:url(#a);}.ai,.d{opacity:0.065;}.d{fill:url(#b);}.aj,.e{opacity:0.097;}.e{fill:url(#c);}.ak,.f{opacity:0.129;}.f{fill:url(#d);}.al,.g{opacity:0.161;}.g{fill:url(#e);}.am,.h{opacity:0.194;}.h{fill:url(#f);}.an,.i{opacity:0.226;}.i{fill:url(#g);}.ao,.j{opacity:0.258;}.j{fill:url(#h);}.ap,.k{opacity:0.29;}.k{fill:url(#i);}.aq,.l{opacity:0.323;}.l{fill:url(#j);}.ar,.m{opacity:0.355;}.m{fill:url(#k);}.as,.n{opacity:0.387;}.n{fill:url(#l);}.at,.o{opacity:0.419;}.o{fill:url(#m);}.au,.p{opacity:0.452;}.p{fill:url(#n);}.av,.q{opacity:0.484;}.q{fill:url(#o);}.aw,.r{opacity:0.516;}.r{fill:url(#p);}.ax,.s{opacity:0.548;}.s{fill:url(#q);}.ay,.t{opacity:0.581;}.t{fill:url(#r);}.az,.u{opacity:0.613;}.u{fill:url(#s);}.ba,.v{opacity:0.645;}.v{fill:url(#t);}.bb,.w{opacity:0.677;}.w{fill:url(#u);}.bc,.x{opacity:0.71;}.x{fill:url(#v);}.bd,.y{opacity:0.742;}.y{fill:url(#w);}.be,.z{opacity:0.774;}.z{fill:url(#x);}.aa,.bf{opacity:0.806;}.aa{fill:url(#y);}.ab,.bg{opacity:0.839;}.ab{fill:url(#z);}.ac,.bh{opacity:0.871;}.ac{fill:url(#aa);}.ad,.bi{opacity:0.903;}.ad{fill:url(#ab);}.ae,.bj{opacity:0.935;}.ae{fill:url(#ac);}.af,.bk{opacity:0.968;}.af{fill:url(#ad);}.ag{fill:url(#ae);}.ah{fill:url(#af);}.ai{fill:url(#ag);}.aj{fill:url(#ah);}.ak{fill:url(#ai);}.al{fill:url(#aj);}.am{fill:url(#ak);}.an{fill:url(#al);}.ao{fill:url(#am);}.ap{fill:url(#an);}.aq{fill:url(#ao);}.ar{fill:url(#ap);}.as{fill:url(#aq);}.at{fill:url(#ar);}.au{fill:url(#as);}.av{fill:url(#at);}.aw{fill:url(#au);}.ax{fill:url(#av);}.ay{fill:url(#aw);}.az{fill:url(#ax);}.ba{fill:url(#ay);}.bb{fill:url(#az);}.bc{fill:url(#ba);}.bd{fill:url(#bb);}.be{fill:url(#bc);}.bf{fill:url(#bd);}.bg{fill:url(#be);}.bh{fill:url(#bf);}.bi{fill:url(#bg);}.bj{fill:url(#bh);}.bk{fill:url(#bi);}.bl{fill:url(#bj);}.bm{fill:url(#bk);}.bn{fill:#1a1818;}.bo{fill:#464749;}.bp{fill:#ae0721;}</style><linearGradient id="a" x1="-0.07" y1="0.062" x2="0.72" y2="0.669" gradientUnits="objectBoundingBox"><stop offset="0.415" stop-color="#fbfbfb"/><stop offset="0.894" stop-color="#f5f5f4"/></linearGradient><linearGradient id="b" x1="-0.072" y1="0.063" x2="0.721" y2="0.669" gradientUnits="objectBoundingBox"><stop offset="0.415" stop-color="#f7f8f8"/><stop offset="0.894" stop-color="#eeeded"/></linearGradient><linearGradient id="c" x1="-0.074" y1="0.064" x2="0.722" y2="0.669" gradientUnits="objectBoundingBox"><stop offset="0.415" stop-color="#f4f5f5"/><stop offset="0.894" stop-color="#e7e7e7"/></linearGradient><linearGradient id="d" x1="-0.076" y1="0.065" x2="0.724" y2="0.669" gradientUnits="objectBoundingBox"><stop offset="0.415" stop-color="#f1f2f3"/><stop offset="0.894" stop-color="#e1e0e1"/></linearGradient><linearGradient id="e" x1="-0.078" y1="0.066" x2="0.725" y2="0.669" gradientUnits="objectBoundingBox"><stop offset="0.415" stop-color="#eff0f1"/><stop offset="0.894" stop-color="#dbdbdb"/></linearGradient><linearGradient id="f" x1="-0.08" y1="0.067" x2="0.727" y2="0.669" gradientUnits="objectBoundingBox"><stop offset="0.415" stop-color="#edeeee"/><stop offset="0.894" stop-color="#d5d5d6"/></linearGradient><linearGradient id="g" x1="-0.082" y1="0.068" x2="0.729" y2="0.67" gradientUnits="objectBoundingBox"><stop offset="0.415" stop-color="#eaecec"/><stop offset="0.894" stop-color="#d0d0d1"/></linearGradient><linearGradient id="h" x1="-0.084" y1="0.069" x2="0.73" y2="0.67" gradientUnits="objectBoundingBox"><stop offset="0.415" stop-color="#e8eaeb"/><stop offset="0.894" stop-color="#cacacc"/></linearGradient><linearGradient id="i" x1="-0.086" y1="0.07" x2="0.732" y2="0.67" gradientUnits="objectBoundingBox"><stop offset="0.415" stop-color="#e5e8e9"/><stop offset="0.894" stop-color="#c5c5c7"/></linearGradient><linearGradient id="j" x1="-0.088" y1="0.071" x2="0.734" y2="0.671" gradientUnits="objectBoundingBox"><stop offset="0.415" stop-color="#e3e6e7"/><stop offset="0.894" stop-color="#c0c0c2"/></linearGradient><linearGradient id="k" x1="-0.09" y1="0.072" x2="0.736" y2="0.671" gradientUnits="objectBoundingBox"><stop offset="0.415" stop-color="#e1e4e5"/><stop offset="0.894" stop-color="#bbbcbd"/></linearGradient><linearGradient id="l" x1="-0.092" y1="0.073" x2="0.738" y2="0.672" gradientUnits="objectBoundingBox"><stop offset="0.415" stop-color="#dfe2e3"/><stop offset="0.894" stop-color="#b6b7b9"/></linearGradient><linearGradient id="m" x1="-0.094" y1="0.074" x2="0.74" y2="0.672" gradientUnits="objectBoundingBox"><stop offset="0.415" stop-color="#dce0e2"/><stop offset="0.894" stop-color="#b1b2b5"/></linearGradient><linearGradient id="n" x1="-0.096" y1="0.075" x2="0.742" y2="0.672" gradientUnits="objectBoundingBox"><stop offset="0.415" stop-color="#dadee0"/><stop offset="0.894" stop-color="#adaeb0"/></linearGradient><linearGradient id="o" x1="-0.098" y1="0.076" x2="0.744" y2="0.673" gradientUnits="objectBoundingBox"><stop offset="0.415" stop-color="#d8dcde"/><stop offset="0.894" stop-color="#a8aaac"/></linearGradient><linearGradient id="p" x1="-0.101" y1="0.077" x2="0.746" y2="0.673" gradientUnits="objectBoundingBox"><stop offset="0.415" stop-color="#d5dadd"/><stop offset="0.894" stop-color="#a3a5a8"/></linearGradient><linearGradient id="q" x1="-0.103" y1="0.078" x2="0.748" y2="0.674" gradientUnits="objectBoundingBox"><stop offset="0.415" stop-color="#d3d8db"/><stop offset="0.894" stop-color="#9fa1a4"/></linearGradient><linearGradient id="r" x1="-0.105" y1="0.079" x2="0.751" y2="0.674" gradientUnits="objectBoundingBox"><stop offset="0.415" stop-color="#d1d7d9"/><stop offset="0.894" stop-color="#9a9da0"/></linearGradient><linearGradient id="s" x1="-0.107" y1="0.08" x2="0.753" y2="0.675" gradientUnits="objectBoundingBox"><stop offset="0.415" stop-color="#cfd5d8"/><stop offset="0.894" stop-color="#96999c"/></linearGradient><linearGradient id="t" x1="-0.109" y1="0.081" x2="0.755" y2="0.676" gradientUnits="objectBoundingBox"><stop offset="0.415" stop-color="#cdd3d6"/><stop offset="0.894" stop-color="#929599"/></linearGradient><linearGradient id="u" x1="-0.111" y1="0.082" x2="0.758" y2="0.676" gradientUnits="objectBoundingBox"><stop offset="0.415" stop-color="#cad1d5"/><stop offset="0.894" stop-color="#8e9195"/></linearGradient><linearGradient id="v" x1="-0.113" y1="0.083" x2="0.76" y2="0.677" gradientUnits="objectBoundingBox"><stop offset="0.415" stop-color="#c8cfd3"/><stop offset="0.894" stop-color="#8a8e91"/></linearGradient><linearGradient id="w" x1="-0.116" y1="0.084" x2="0.763" y2="0.678" gradientUnits="objectBoundingBox"><stop offset="0.415" stop-color="#c6ced1"/><stop offset="0.894" stop-color="#868a8e"/></linearGradient><linearGradient id="x" x1="-0.118" y1="0.085" x2="0.765" y2="0.678" gradientUnits="objectBoundingBox"><stop offset="0.415" stop-color="#c4ccd0"/><stop offset="0.894" stop-color="#82878a"/></linearGradient><linearGradient id="y" x1="-0.12" y1="0.086" x2="0.768" y2="0.679" gradientUnits="objectBoundingBox"><stop offset="0.415" stop-color="#c2cace"/><stop offset="0.894" stop-color="#7e8387"/></linearGradient><linearGradient id="z" x1="-0.122" y1="0.087" x2="0.77" y2="0.68" gradientUnits="objectBoundingBox"><stop offset="0.415" stop-color="#c0c9cd"/><stop offset="0.894" stop-color="#7b8084"/></linearGradient><linearGradient id="aa" x1="-0.124" y1="0.088" x2="0.773" y2="0.68" gradientUnits="objectBoundingBox"><stop offset="0.415" stop-color="#bec7cb"/><stop offset="0.894" stop-color="#777d81"/></linearGradient><linearGradient id="ab" x1="-0.126" y1="0.088" x2="0.776" y2="0.681" gradientUnits="objectBoundingBox"><stop offset="0.415" stop-color="#bcc5ca"/><stop offset="0.894" stop-color="#737a7d"/></linearGradient><linearGradient id="ac" x1="-0.129" y1="0.089" x2="0.778" y2="0.682" gradientUnits="objectBoundingBox"><stop offset="0.415" stop-color="#bac4c8"/><stop offset="0.894" stop-color="#70767a"/></linearGradient><linearGradient id="ad" x1="-0.131" y1="0.09" x2="0.781" y2="0.682" gradientUnits="objectBoundingBox"><stop offset="0.415" stop-color="#b8c2c7"/><stop offset="0.894" stop-color="#6c7477"/></linearGradient><linearGradient id="ae" x1="-27.283" y1="-0.024" x2="-26.009" y2="0.799" gradientUnits="objectBoundingBox"><stop offset="0.415" stop-color="#b6c0c5"/><stop offset="0.894" stop-color="#697175"/></linearGradient><linearGradient id="af" x1="0.032" y1="-0.027" x2="0.773" y2="0.605" xlink:href="#a"/><linearGradient id="ag" x1="0.032" y1="-0.027" x2="0.771" y2="0.605" xlink:href="#b"/><linearGradient id="ah" x1="0.032" y1="-0.026" x2="0.77" y2="0.604" xlink:href="#c"/><linearGradient id="ai" x1="0.031" y1="-0.026" x2="0.768" y2="0.604" xlink:href="#d"/><linearGradient id="aj" x1="0.031" y1="-0.026" x2="0.766" y2="0.603" xlink:href="#e"/><linearGradient id="ak" x1="0.031" y1="-0.026" x2="0.764" y2="0.603" xlink:href="#f"/><linearGradient id="al" x1="0.03" y1="-0.025" x2="0.762" y2="0.602" xlink:href="#g"/><linearGradient id="am" x1="0.03" y1="-0.025" x2="0.76" y2="0.601" xlink:href="#h"/><linearGradient id="an" x1="0.03" y1="-0.025" x2="0.758" y2="0.601" xlink:href="#i"/><linearGradient id="ao" x1="0.029" y1="-0.025" x2="0.756" y2="0.6" xlink:href="#j"/><linearGradient id="ap" x1="0.029" y1="-0.024" x2="0.754" y2="0.6" xlink:href="#k"/><linearGradient id="aq" x1="0.028" y1="-0.024" x2="0.752" y2="0.599" xlink:href="#l"/><linearGradient id="ar" x1="0.028" y1="-0.024" x2="0.75" y2="0.599" xlink:href="#m"/><linearGradient id="as" x1="0.028" y1="-0.024" x2="0.749" y2="0.598" xlink:href="#n"/><linearGradient id="at" x1="0.027" y1="-0.023" x2="0.747" y2="0.598" xlink:href="#o"/><linearGradient id="au" x1="0.027" y1="-0.023" x2="0.745" y2="0.597" xlink:href="#p"/><linearGradient id="av" x1="0.027" y1="-0.023" x2="0.743" y2="0.596" xlink:href="#q"/><linearGradient id="aw" x1="0.026" y1="-0.022" x2="0.741" y2="0.596" xlink:href="#r"/><linearGradient id="ax" x1="0.026" y1="-0.022" x2="0.739" y2="0.595" xlink:href="#s"/><linearGradient id="ay" x1="0.025" y1="-0.022" x2="0.737" y2="0.595" xlink:href="#t"/><linearGradient id="az" x1="0.025" y1="-0.021" x2="0.735" y2="0.594" xlink:href="#u"/><linearGradient id="ba" x1="0.025" y1="-0.021" x2="0.733" y2="0.594" xlink:href="#v"/><linearGradient id="bb" x1="0.024" y1="-0.021" x2="0.731" y2="0.593" xlink:href="#w"/><linearGradient id="bc" x1="0.024" y1="-0.02" x2="0.729" y2="0.593" xlink:href="#x"/><linearGradient id="bd" x1="0.023" y1="-0.02" x2="0.727" y2="0.592" xlink:href="#y"/><linearGradient id="be" x1="0.023" y1="-0.02" x2="0.725" y2="0.591" xlink:href="#z"/><linearGradient id="bf" x1="0.023" y1="-0.02" x2="0.724" y2="0.591" xlink:href="#aa"/><linearGradient id="bg" x1="0.022" y1="-0.019" x2="0.722" y2="0.59" xlink:href="#ab"/><linearGradient id="bh" x1="0.022" y1="-0.019" x2="0.72" y2="0.59" xlink:href="#ac"/><linearGradient id="bi" x1="0.021" y1="-0.019" x2="0.718" y2="0.589" xlink:href="#ad"/><linearGradient id="bj" x1="-13.645" y1="-0.133" x2="-12.687" y2="0.703" xlink:href="#ae"/><linearGradient id="bk" x1="0.34" y1="-0.575" x2="0.824" y2="2.11" gradientUnits="objectBoundingBox"><stop offset="0" stop-color="#b40c1f"/><stop offset="1" stop-color="#561824"/></linearGradient></defs><g transform="translate(-235.243 -45.239)"><g class="a"><path class="b" d="M302.6,90.589c0,2.826-3.1,9.671-9.208,16.548a56.678,56.678,0,0,1-11.393,9.842,51.512,51.512,0,0,1-15.818,6.9l.185-23.537.184-23.537H302.6Z"/><path class="c" d="M266.948,77.049l9,0,9,0,17.993,0-.01,13.3v.384c-.015,2.915-3.077,9.647-8.972,16.485a55.122,55.122,0,0,1-6.16,6.152,56.142,56.142,0,0,1-5.3,3.974,52.538,52.538,0,0,1-6.664,3.712,50.927,50.927,0,0,1-9.238,3.254l.179-23.625Z"/><path class="d" d="M267.349,77.293l8.981,0,8.981-.005,17.962-.009-.02,13.2v.384c-.017,3-3.047,9.627-8.738,16.421a52.9,52.9,0,0,1-6.164,6.334,55.293,55.293,0,0,1-5.361,4.077A51.456,51.456,0,0,1,267,124.72l.173-23.714Z"/><path class="e" d="M267.75,77.537l8.965-.007,8.966-.006,17.93-.014-.029,13.1c0,.011,0,.371,0,.382-.018,3.092-3.011,9.614-8.5,16.357a51.139,51.139,0,0,1-6.167,6.517,55.1,55.1,0,0,1-5.423,4.179,51.349,51.349,0,0,1-16.072,7.1l.167-23.8Z"/><path class="f" d="M268.151,77.781l8.95-.009,8.95-.009,17.9-.017-.04,13v.38c-.02,3.181-2.973,9.606-8.268,16.294a49.589,49.589,0,0,1-6.172,6.7,54.9,54.9,0,0,1-5.484,4.282,50.579,50.579,0,0,1-6.761,3.823,51.427,51.427,0,0,1-9.4,3.341l.161-23.89Z"/><path class="g" d="M268.552,78.025l8.934-.011L286.42,78l17.868-.022-.049,12.9c0,.018,0,.36,0,.378-.02,3.27-2.929,9.6-8.033,16.231a48.241,48.241,0,0,1-6.175,6.881,54.466,54.466,0,0,1-5.546,4.384,50.126,50.126,0,0,1-6.793,3.861,51.651,51.651,0,0,1-9.449,3.369L268.4,102Z"/><path class="h" d="M268.954,78.269l8.918-.013,8.918-.013,17.837-.027-.06,12.795v.377c-.022,3.358-2.882,9.6-7.8,16.168a46.876,46.876,0,0,1-6.179,7.062,53.849,53.849,0,0,1-5.607,4.488,49.782,49.782,0,0,1-6.825,3.9,51.8,51.8,0,0,1-9.5,3.4l.149-24.067Z"/><path class="i" d="M269.355,78.513l8.9-.015,8.9-.016,17.8-.031-.069,12.7c0,.026,0,.35,0,.376-.023,3.446-2.83,9.606-7.563,16.1a45.816,45.816,0,0,1-6.183,7.245,53.337,53.337,0,0,1-5.669,4.591,49.5,49.5,0,0,1-6.858,3.934,51.922,51.922,0,0,1-9.553,3.427l.143-24.154Z"/><path class="j" d="M269.756,78.757l8.887-.018,8.887-.017,17.774-.036-.08,12.6c0,.029,0,.345,0,.374-.024,3.535-2.775,9.615-7.328,16.04a44.891,44.891,0,0,1-6.186,7.427,52.918,52.918,0,0,1-5.731,4.693,49.377,49.377,0,0,1-6.89,3.972,52.138,52.138,0,0,1-9.606,3.456L269.619,103Z"/><path class="k" d="M270.157,79l8.871-.02,8.872-.02,17.742-.04-.089,12.5c0,.032,0,.339,0,.372-.026,3.624-2.716,9.627-7.094,15.977a43.924,43.924,0,0,1-6.19,7.609,52.22,52.22,0,0,1-5.792,4.8,49.2,49.2,0,0,1-6.922,4.009,52.3,52.3,0,0,1-9.659,3.484l.131-24.331Z"/><path class="l" d="M270.558,79.245l8.856-.022,8.856-.022,17.711-.044-.1,12.393c0,.037,0,.335,0,.371-.027,3.713-2.653,9.643-6.858,15.913a43.109,43.109,0,0,1-6.194,7.792,51.666,51.666,0,0,1-5.854,4.9,48.776,48.776,0,0,1-6.955,4.046,52.335,52.335,0,0,1-9.711,3.513l.125-24.419Z"/><path class="m" d="M270.959,79.489l8.84-.024,8.84-.024,17.68-.049-.109,12.293c0,.04,0,.329,0,.369-.029,3.8-2.587,9.661-6.624,15.85a42.382,42.382,0,0,1-6.2,7.974,51.2,51.2,0,0,1-5.915,5,48.7,48.7,0,0,1-6.987,4.083,52.544,52.544,0,0,1-9.764,3.542L270.84,104Z"/><path class="n" d="M271.361,79.733l8.824-.026,8.824-.027,17.649-.053-.12,12.193c0,.043,0,.324,0,.367-.03,3.89-2.517,9.683-6.389,15.787a41.72,41.72,0,0,1-6.2,8.156,50.427,50.427,0,0,1-5.978,5.1,48.459,48.459,0,0,1-7.018,4.121,52.751,52.751,0,0,1-9.817,3.57l.113-24.595Z"/><path class="o" d="M271.762,79.977l8.808-.028,8.809-.029L307,79.862l-.129,12.093c0,.047,0,.319,0,.366-.032,3.978-2.444,9.706-6.154,15.723a41.086,41.086,0,0,1-6.206,8.337,49.8,49.8,0,0,1-6.039,5.207,48.374,48.374,0,0,1-7.051,4.158,52.849,52.849,0,0,1-9.869,3.6l.107-24.684Z"/><path class="p" d="M272.163,80.221l8.793-.031,8.793-.031,17.586-.062-.14,11.992c0,.051,0,.314,0,.365-.025,4.067-2.367,9.732-5.919,15.659a40.476,40.476,0,0,1-6.209,8.52,49.15,49.15,0,0,1-6.1,5.309,48.2,48.2,0,0,1-7.083,4.195,52.983,52.983,0,0,1-9.922,3.628l.1-24.772Z"/><path class="q" d="M272.564,80.465l8.777-.033,8.778-.033,17.554-.067-.149,11.892c0,.055,0,.309,0,.363-.027,4.156-2.288,9.761-5.685,15.6a39.944,39.944,0,0,1-6.212,8.7,48.617,48.617,0,0,1-6.163,5.412,48.116,48.116,0,0,1-7.115,4.232,53.185,53.185,0,0,1-9.975,3.657l.1-24.86Z"/><path class="r" d="M272.965,80.709l8.762-.035,8.762-.035,17.523-.071-.16,11.791c0,.058,0,.3,0,.361-.028,4.245-2.205,9.791-5.449,15.533a39.405,39.405,0,0,1-6.217,8.884,44.646,44.646,0,0,1-13.371,9.784,53.316,53.316,0,0,1-10.028,3.685l.09-24.948Z"/><path class="s" d="M273.366,80.953l8.746-.037,8.746-.038L308.35,80.8l-.169,11.691c0,.061,0,.3,0,.359-.03,4.334-2.119,9.823-5.214,15.47a38.949,38.949,0,0,1-6.22,9.066,47.558,47.558,0,0,1-6.286,5.617,48.038,48.038,0,0,1-7.18,4.307,53.476,53.476,0,0,1-10.08,3.714l.084-25.037Z"/><path class="t" d="M273.768,81.2l8.73-.04,8.73-.04,17.461-.08-.18,11.59c0,.066,0,.293,0,.358-.032,4.423-2.031,9.857-4.98,15.406a38.436,38.436,0,0,1-6.224,9.249,47.1,47.1,0,0,1-6.347,5.72,48.028,48.028,0,0,1-7.212,4.343,53.62,53.62,0,0,1-10.132,3.743l.077-25.125Z"/><path class="u" d="M274.169,81.442l8.714-.043,8.715-.042,17.429-.084-.189,11.49c0,.069,0,.288,0,.357-.033,4.51-1.939,9.891-4.744,15.342a38,38,0,0,1-6.228,9.431,46.575,46.575,0,0,1-6.409,5.822,47.93,47.93,0,0,1-7.244,4.381,53.771,53.771,0,0,1-10.185,3.772l.071-25.213Z"/><path class="v" d="M274.57,81.686l8.7-.045,8.7-.044,17.4-.089-.2,11.39c0,.073,0,.282,0,.355-.036,4.6-1.845,9.927-4.51,15.279a37.531,37.531,0,0,1-6.232,9.612,45.989,45.989,0,0,1-6.47,5.926,47.931,47.931,0,0,1-7.277,4.418,53.9,53.9,0,0,1-10.237,3.8l.065-25.3Z"/><path class="w" d="M274.971,81.93l8.683-.047,8.684-.046,17.366-.094-.209,11.29c0,.076,0,.277,0,.353-.037,4.688-1.747,9.964-4.275,15.215a37.058,37.058,0,0,1-6.235,9.8,45.5,45.5,0,0,1-6.532,6.028,47.832,47.832,0,0,1-7.309,4.456,54.094,54.094,0,0,1-10.29,3.829l.059-25.39Z"/><path class="x" d="M275.372,82.174l8.668-.049,8.668-.049,17.335-.1-.219,11.188c0,.08,0,.272,0,.352-.039,4.777-1.648,10-4.04,15.152a36.638,36.638,0,0,1-6.24,9.977,45.036,45.036,0,0,1-6.594,6.131,47.719,47.719,0,0,1-7.34,4.492,54.149,54.149,0,0,1-10.343,3.858l.054-25.477Z"/><path class="y" d="M275.773,82.418l8.652-.051,8.652-.051,17.3-.1L310.152,93.3c0,.084,0,.267,0,.35-.041,4.866-1.546,10.041-3.8,15.089A36.214,36.214,0,0,1,300.1,118.9a44.628,44.628,0,0,1-6.656,6.233,47.711,47.711,0,0,1-7.373,4.53,54.3,54.3,0,0,1-10.395,3.887l.048-25.566Z"/><path class="z" d="M276.175,82.662l8.636-.053,8.636-.054,17.273-.106-.239,10.988c0,.087,0,.262,0,.348a39.48,39.48,0,0,1-3.571,15.026,35.753,35.753,0,0,1-6.246,10.341,44.3,44.3,0,0,1-6.718,6.336,47.683,47.683,0,0,1-7.4,4.567,54.487,54.487,0,0,1-10.448,3.915l.042-25.654Z"/><path class="aa" d="M276.576,82.906l8.62-.056,8.621-.055,17.241-.111-.249,10.888c0,.091,0,.256,0,.347a40.47,40.47,0,0,1-3.335,14.961,35.332,35.332,0,0,1-6.251,10.524,43.932,43.932,0,0,1-6.779,6.439,47.78,47.78,0,0,1-7.437,4.6,54.609,54.609,0,0,1-10.5,3.944l.036-25.743Z"/><path class="ab" d="M276.977,83.15l8.605-.058,8.605-.057,17.21-.116-.259,10.787c0,.1,0,.252,0,.346a41.6,41.6,0,0,1-3.1,14.9,34.86,34.86,0,0,1-6.254,10.706,43.538,43.538,0,0,1-6.841,6.541,47.688,47.688,0,0,1-7.47,4.642,54.757,54.757,0,0,1-10.553,3.972l.03-25.83Z"/><path class="ac" d="M277.378,83.394l8.589-.06,8.59-.06,17.178-.12-.269,10.687c0,.1,0,.246,0,.344A42.982,42.982,0,0,1,308.6,109.02a34.389,34.389,0,0,1-6.258,10.887,43.141,43.141,0,0,1-6.9,6.645,47.7,47.7,0,0,1-7.5,4.678,54.874,54.874,0,0,1-10.606,4l.024-25.919Z"/><path class="ad" d="M277.779,83.638l8.574-.062,8.574-.062,17.147-.124L311.8,93.976c0,.1,0,.241,0,.342a44.626,44.626,0,0,1-2.63,14.772,33.936,33.936,0,0,1-6.262,11.069,42.828,42.828,0,0,1-6.964,6.747,47.594,47.594,0,0,1-7.534,4.716,54.99,54.99,0,0,1-10.659,4.03l.018-26.007Z"/><path class="ae" d="M278.18,83.882l8.558-.064,8.558-.065,17.116-.128-.289,10.486c0,.105,0,.235,0,.34a46.577,46.577,0,0,1-2.4,14.708,33.444,33.444,0,0,1-6.266,11.252,42.906,42.906,0,0,1-7.025,6.85,47.949,47.949,0,0,1-7.567,4.753,55.177,55.177,0,0,1-10.71,4.059l.011-26.1Z"/><path class="af" d="M278.582,84.126l8.542-.067,8.542-.066,17.085-.133-.3,10.385c0,.11,0,.231,0,.34a48.918,48.918,0,0,1-2.161,14.644,32.946,32.946,0,0,1-6.269,11.434,42.439,42.439,0,0,1-7.087,6.952,47.838,47.838,0,0,1-7.6,4.791,55.356,55.356,0,0,1-10.763,4.087l.006-26.183Z"/><path class="ag" d="M304.579,120.915a42.011,42.011,0,0,1-7.149,7.055A47.654,47.654,0,0,1,289.8,132.8a55.4,55.4,0,0,1-10.816,4.117V84.37l8.526-.069,8.527-.068,17.053-.138L312.78,94.38a52.333,52.333,0,0,1-1.928,14.919A32.471,32.471,0,0,1,304.579,120.915Z"/></g><g class="a"><path class="b" d="M255.437,67.432c0,2.41.018,15.747.035,28.48s.034,24.865.034,24.865c-1.966,1.88-20.263-26.6-20.263-26.6l.024-24.467.023-24.467h64.43l-22.142,11.1Z"/><path class="ah" d="M235.692,45.483h64.456l-12.809,6.994-9,4.321-9.558,4.587-12.83,6.155c0,.833-.24,3.012-.237,6.031.007,5.44.017,14.472.028,22.4,0,.412,0,.872,0,1.282.016,11.862.031,23.745.031,23.745-.971.907-6.4-5.954-11.282-13.263-4.572-6.551-8.842-14.046-8.842-14.046l.023-24.1Z"/><path class="ai" d="M236.093,45.727h64.483l-12.383,7.355-9.1,4.179L269.427,61.7l-12.972,5.953c0,.8-.483,2.913-.479,5.83.006,5.259.016,14.884.026,22.545,0,.4,0,.894,0,1.29.016,11.466.031,23.9.031,23.9-.942.856-6.564-5.958-11.439-13.561A142.656,142.656,0,0,1,236.049,93.2l.022-23.736Z"/><path class="aj" d="M236.494,45.971H301l-11.957,7.716-9.2,4.037-9.767,4.284-13.114,5.749a38.024,38.024,0,0,0-.723,5.631c.006,5.077.016,15.295.026,22.692,0,.385,0,.916,0,1.3.015,11.071.03,24.053.03,24.053-.913.806-6.731-5.962-11.6-13.858a113.047,113.047,0,0,1-8.253-14.861l.022-23.371Z"/><path class="ak" d="M236.9,46.215h64.537L289.9,54.293l-9.3,3.893-9.871,4.134-13.257,5.546c0,.749-.969,2.714-.966,5.43.006,4.9.016,15.708.025,22.841,0,.37,0,.937,0,1.306.014,10.675.028,24.206.028,24.206-.883.756-6.9-5.966-11.752-14.156-4.114-5.895-7.957-15.268-7.957-15.268l.021-23Z"/><path class="al" d="M237.3,46.459H301.86L290.754,54.9l-9.4,3.751-9.976,3.982-13.4,5.343c0,.722-1.211,2.615-1.208,5.231.005,4.714.014,16.119.024,22.988,0,.356,0,.959,0,1.314.014,10.28.027,24.359.027,24.359-.854.706-7.064-5.969-11.908-14.452-3.962-5.677-7.662-15.676-7.662-15.676l.019-22.639Z"/><path class="am" d="M237.7,46.7h64.59l-10.679,8.8-9.495,3.609-10.079,3.831-13.542,5.14c0,.694-1.454,2.515-1.451,5.03.005,4.534.014,16.531.023,23.136,0,.343,0,.981,0,1.322.014,9.885.027,24.513.027,24.513-.825.656-7.231-5.972-12.065-14.75-3.809-5.458-7.368-16.083-7.368-16.083l.019-22.274Z"/><path class="an" d="M238.1,46.947h64.616l-10.253,9.162-9.593,3.466-10.183,3.679L259,68.191c0,.666-1.7,2.416-1.694,4.831.005,4.352.014,16.942.022,23.283,0,.329,0,1,0,1.331.013,9.489.025,24.666.025,24.666-.8.606-7.4-5.976-12.221-15.047-3.657-5.241-7.073-16.491-7.073-16.491l.018-21.908Z"/><path class="ao" d="M238.5,47.191h64.643l-9.827,9.523-9.691,3.324-10.288,3.528L259.51,68.3c0,.638-1.939,2.316-1.937,4.63.005,4.171.013,17.355.022,23.431,0,.315,0,1.025,0,1.339.012,9.094.024,24.82.024,24.82-.766.556-7.564-5.98-12.377-15.344-3.5-5.023-6.778-16.9-6.778-16.9l.017-21.543Z"/><path class="ap" d="M238.9,47.435h64.67l-9.4,9.884L284.381,60.5l-10.392,3.377-13.97,4.531c0,.611-2.182,2.217-2.179,4.431,0,3.989.012,17.766.02,23.578,0,.3,0,1.047,0,1.347.012,8.7.024,24.974.024,24.974-.738.5-7.731-5.984-12.534-15.642-3.352-4.8-6.484-17.306-6.484-17.306l.017-21.177Z"/><path class="aq" d="M239.3,47.679H304l-8.976,10.246-9.886,3.038-10.5,3.226-14.113,4.328c0,.583-2.424,2.117-2.422,4.23,0,3.808.012,18.178.019,23.726,0,.288,0,1.069,0,1.355.011,8.3.022,25.128.022,25.128-.708.455-7.9-5.988-12.69-15.939-3.2-4.586-6.189-17.714-6.189-17.714l.016-20.812Z"/><path class="ar" d="M239.7,47.923h64.724l-8.55,10.607-9.985,2.9-10.6,3.074-14.255,4.126c0,.555-2.667,2.017-2.665,4.03.005,3.626.012,18.589.019,23.873,0,.274,0,1.09,0,1.364.011,7.908.021,25.281.021,25.281-.679.4-8.064-5.992-12.846-16.237-3.047-4.367-5.894-18.121-5.894-18.121l.015-20.446Z"/><path class="as" d="M240.1,48.167h64.751l-8.124,10.968-10.083,2.754-10.7,2.923-14.4,3.922c0,.527-2.91,1.919-2.907,3.83,0,3.445.01,19,.017,24.021,0,.261,0,1.112,0,1.372.01,7.512.02,25.435.02,25.435-.649.354-8.23-5.995-13-16.534-2.9-4.149-5.6-18.529-5.6-18.529l.015-20.081Z"/><path class="at" d="M240.506,48.411h64.777l-7.7,11.329L287.4,62.352,276.6,65.123l-14.541,3.72c0,.5-3.152,1.819-3.15,3.63,0,3.264.01,19.413.017,24.168,0,.247,0,1.134,0,1.38.009,7.117.019,25.589.019,25.589-.621.3-8.4-6-13.159-16.832-2.743-3.93-5.305-18.936-5.305-18.936l.014-19.715Z"/><path class="au" d="M240.907,48.655h64.8l-7.273,11.691L288.16,62.814l-10.913,2.621-14.683,3.516c0,.472-3.395,1.72-3.393,3.43,0,3.083.01,19.825.016,24.316,0,.233,0,1.156,0,1.389.009,6.721.018,25.741.018,25.741-.591.255-8.564-6-13.315-17.128-2.59-3.712-5.01-19.344-5.01-19.344L240.894,68Z"/><path class="av" d="M241.308,48.9h64.831l-6.847,12.052-10.376,2.326L277.9,65.746,263.073,69.06c0,.444-3.637,1.62-3.636,3.23,0,2.9.01,20.236.015,24.463,0,.22,0,1.178,0,1.4.009,6.326.017,25.895.017,25.895-.562.2-8.73-6.006-13.471-17.426-2.438-3.493-4.715-19.751-4.715-19.751l.012-18.984Z"/><path class="aw" d="M241.709,49.143h64.858l-6.421,12.413L289.672,63.74l-11.121,2.318-14.968,3.11c0,.417-3.881,1.521-3.879,3.03,0,2.72.008,20.649.014,24.611v1.4c.009,5.931.016,26.049.016,26.049-.532.154-8.9-6.01-13.627-17.723-2.286-3.276-4.421-20.159-4.421-20.159l.012-18.619Z"/><path class="ax" d="M242.11,49.387h64.885L301,62.162,290.427,64.2,279.2,66.369l-15.11,2.908c0,.388-4.124,1.421-4.122,2.83,0,2.538.008,21.06.013,24.758,0,.192,0,1.222,0,1.413.007,5.536.015,26.2.015,26.2-.5.1-9.064-6.013-13.784-18.021-2.133-3.057-4.126-20.566-4.126-20.566l.011-18.253Z"/><path class="ay" d="M242.511,49.631h64.912l-5.57,13.136-10.67,1.9-11.329,2.015-15.253,2.7c0,.361-4.366,1.322-4.365,2.63,0,2.357.008,21.472.012,24.906,0,.179,0,1.244,0,1.422.007,5.14.014,26.356.014,26.356-.474.053-9.231-6.017-13.94-18.318-1.981-2.839-3.831-20.974-3.831-20.974l.01-17.888Z"/><path class="az" d="M242.913,49.875h64.938l-5.144,13.5-10.768,1.757-11.434,1.864-15.4,2.5c0,.333-4.609,1.222-4.607,2.43,0,2.176.006,21.883.011,25.053v1.43c.007,4.745.013,26.51.013,26.51-.445,0-9.4-6.021-14.1-18.616-1.829-2.62-3.537-21.381-3.537-21.381L242.9,67.4Z"/><path class="ba" d="M243.314,50.119h64.965l-4.718,13.859L292.7,65.591,281.157,67.3l-15.538,2.3c0,.306-4.851,1.123-4.85,2.23,0,2,.006,22.3.01,25.2,0,.15,0,1.287,0,1.437.006,4.35.011,26.664.011,26.664-.415-.047-9.563-6.025-14.252-18.913-1.676-2.4-3.242-21.789-3.242-21.789l.008-17.157Z"/><path class="bb" d="M243.715,50.363h64.992l-4.292,14.22-10.964,1.471-11.642,1.562-15.681,2.1c0,.278-5.094,1.023-5.093,2.03,0,1.813.006,22.707.009,25.349,0,.137,0,1.309,0,1.446,0,3.953.011,26.817.011,26.817-.387-.1-9.731-6.029-14.409-19.211-1.524-2.183-2.947-22.2-2.947-22.2l.007-16.791Z"/><path class="bc" d="M244.116,50.607h65.019l-3.866,14.581-11.062,1.329-11.747,1.41L266.637,69.82c0,.249-5.337.923-5.335,1.829,0,1.632.005,23.119.008,25.5V98.6c.005,3.558.01,26.971.01,26.971-.357-.148-9.9-6.032-14.565-19.508-1.372-1.965-2.653-22.6-2.653-22.6l.007-16.426Z"/><path class="bd" d="M244.517,50.851h65.046l-3.441,14.943-11.16,1.186-11.85,1.259-15.966,1.689c0,.222-5.579.825-5.578,1.629,0,1.451,0,23.531.007,25.645,0,.109,0,1.353,0,1.462,0,3.163.008,27.124.008,27.124-.328-.2-10.064-6.035-14.721-19.805-1.219-1.746-2.358-23.011-2.358-23.011l.006-16.06Z"/><path class="be" d="M244.918,51.1h65.073l-3.015,15.3-11.258,1.044L283.764,68.55l-16.109,1.487c0,.194-5.822.725-5.821,1.429,0,1.269,0,23.943.007,25.792v1.47c0,2.768.007,27.278.007,27.278-.3-.247-10.23-6.039-14.877-20.1-1.067-1.529-2.063-23.419-2.063-23.419l0-15.695Z"/><path class="bf" d="M245.32,51.339h65.1L307.83,67l-11.356.9-12.059.957-16.251,1.283c0,.167-6.064.626-6.064,1.229,0,1.088,0,24.355.006,25.94v1.479c0,2.372.007,27.431.007,27.431-.27-.3-10.4-6.043-15.034-20.4C246.164,104.514,245.31,82,245.31,82l.005-15.329Z"/><path class="bg" d="M245.721,51.584h65.126L308.684,67.61l-11.454.758-12.163.805-16.394,1.081c0,.139-6.307.526-6.306,1.029,0,.907,0,24.766,0,26.087,0,.069,0,1.419,0,1.487,0,1.977.005,27.585.005,27.585a38.3,38.3,0,0,1-15.19-20.7c-.762-1.092-1.474-24.234-1.474-24.234l0-14.964Z"/><path class="bh" d="M246.122,51.828h65.153l-1.738,16.387-11.551.616-12.267.654-16.537.877c0,.111-6.549.427-6.549.829,0,.726,0,25.178,0,26.235v1.495c0,1.582,0,27.739,0,27.739a38.489,38.489,0,0,1-15.346-20.994c-.61-.874-1.179-24.642-1.179-24.642l0-14.6Z"/><path class="bi" d="M246.523,52.072H311.7L310.391,68.82l-11.65.474-12.371.5-16.678.675c0,.083-6.793.327-6.793.629,0,.544,0,25.589,0,26.382v1.5c0,1.186,0,27.892,0,27.892a38.691,38.691,0,0,1-15.5-21.292c-.457-.655-.884-25.049-.884-25.049l0-14.233Z"/><path class="bj" d="M246.924,52.316h65.207l-.886,17.11-11.748.331-12.475.351-16.821.471c0,.056-7.036.228-7.035.429,0,.363,0,26,0,26.53,0,.028,0,1.485,0,1.512,0,.791,0,28.046,0,28.046-.152-.5-11.064-6.058-15.659-21.589-.305-.437-.59-25.457-.59-25.457l0-13.867Z"/><path class="bk" d="M247.325,52.56h65.234l-.46,17.471-11.846.188-12.579.2-16.964.269c0,.028-7.278.128-7.278.229,0,.181,0,26.413,0,26.677v1.52c0,.4,0,28.2,0,28.2-.123-.549-11.23-6.062-15.815-21.887-.153-.218-.295-25.864-.295-25.864v-27Z"/><path class="bl" d="M263.7,70.825v56.706c-.093-.6-11.4-6.065-15.971-22.183V52.8h65.26l-.034,17.832-24.628.1Z"/></g><path d="M279.293,136.914c.17.047.338.1.51.146,19.079-5.118,33.2-20.547,33.314-38.677h.008V84.131H279.293Z"/><path class="bm" d="M246.483,87.877V98.383h.007c.082,12.485,6.8,23.688,17.208,31.126V70.825h49.427v-18H246.483Z"/><path class="bn" d="M331.182,70.812H343.07v3.715h-7.977V98.185h-3.911Z"/><path class="bn" d="M347.175,70.812H353a7.1,7.1,0,0,1,5.475,1.8c1.8,1.838,1.994,4.223,1.994,6.257v.782a8.265,8.265,0,0,1-1.681,5.552,6.769,6.769,0,0,1-5.4,2.151h-2.307V98.185h-3.91Zm3.91,13.022H353.2a3.37,3.37,0,0,0,2.62-1.017A3.621,3.621,0,0,0,356.56,80V78.2a3.718,3.718,0,0,0-1.056-3.168,4.443,4.443,0,0,0-3.05-.7h-1.369Z"/><path class="bn" d="M372.9,98.185l-1.291-5.866h-5.005l-1.29,5.866h-3.911l5.983-27.373h3.441l5.983,27.373Zm-3.871-19.747L367,88.839h4.145Z"/><path class="bn" d="M385.3,70.812v11.77h5.279V70.812h3.91V98.185h-3.91V86.1H385.3V98.185h-3.911V70.812Z"/><path class="bn" d="M416.112,94.666v7.742H412.4V98.185H402.308v4.223h-3.714V94.666h1.838a26.783,26.783,0,0,0,1.994-6.531c.665-3.754.821-10.558.821-15.328v-2h10.636V94.666Zm-9.19-20.334v2.15a73.391,73.391,0,0,1-.86,12.865,20.922,20.922,0,0,1-1.642,5.514h5.553V74.332Z"/><path class="bn" d="M429.445,81.879c1.526,0,3.676-.079,5.436,1.564a5.739,5.739,0,0,1,1.681,4.536v3.206a7.328,7.328,0,0,1-1.134,4.419c-.743,1.1-2.268,2.581-5.865,2.581h-5.944V74.527h-4.966V70.812h8.877V81.879ZM427.53,94.666h1.759c1.017,0,3.363-.235,3.363-4.067V89.113A3.548,3.548,0,0,0,431.6,86.1a2.967,2.967,0,0,0-2.072-.7H427.53Z"/><path class="bo" d="M332.989,120.2c0,.014,0,.105-.143.105h-.7c-.144,0-.144-.091-.144-.105v-6c0-.1.039-.143.092-.156l.26-.066.444-.1a.221.221,0,0,1,.091-.013h.013a.092.092,0,0,1,.091.1v2.686h.561c.469,0,.691-.222.808-.7l.17-.678a1.664,1.664,0,0,1,.873-1.278,2.33,2.33,0,0,1,.652-.13.151.151,0,0,1,.169.1l.144.587c.039.144-.091.144-.169.156l-.183.027a.56.56,0,0,0-.4.208,1.82,1.82,0,0,0-.2.509l-.143.521a1.284,1.284,0,0,1-.861,1.03,1.188,1.188,0,0,1,.861.835l.4,1.251a1.012,1.012,0,0,0,.209.365.869.869,0,0,0,.378.131l.156.026c.117.013.209.013.157.182l-.17.587c-.026.1-.117.1-.183.1a1.954,1.954,0,0,1-.795-.13c-.534-.222-.625-.678-.8-1.278l-.261-.925c-.169-.614-.417-.692-.808-.692h-.574Z"/><path class="bo" d="M343.691,117.172c0,2.608-1.473,3.312-2.594,3.312s-2.595-.7-2.595-3.312,1.474-3.311,2.595-3.311S343.691,114.565,343.691,117.172Zm-4.12,0c0,.678.066,2.5,1.526,2.5s1.525-1.826,1.525-2.5-.065-2.5-1.525-2.5S339.571,116.5,339.571,117.172Z"/><path class="bo" d="M347.34,120.145c0,.078-.013.157-.157.157h-.678c-.143,0-.156-.079-.156-.157V114.2c0-.1.039-.143.092-.156l.286-.066.417-.1a.429.429,0,0,1,.1-.013c.091,0,.091.091.091.117v2.7h2.516V114.2c0-.1.039-.143.092-.156l.7-.17a.418.418,0,0,1,.1-.013c.091,0,.091.091.091.117v6.167c0,.078-.013.157-.156.157h-.679c-.078,0-.156-.013-.156-.157v-2.66H347.34Z"/><path class="bo" d="M357.741,115.321c-.013.026-.026.052-.065.052s-.091-.039-.156-.091a1.9,1.9,0,0,0-1.278-.547c-1.578,0-1.617,1.864-1.617,2.437,0,.979.118,2.439,1.5,2.439a3.049,3.049,0,0,0,1.434-.457.8.8,0,0,1,.156-.065h.026a.077.077,0,0,1,.065.065l.235.587a.165.165,0,0,1,.013.078c0,.052-.078.13-.482.326a3.619,3.619,0,0,1-1.473.339c-1.187,0-2.543-.613-2.543-3.181,0-2.373,1.291-3.442,2.608-3.442a2.941,2.941,0,0,1,1.682.548c.273.195.247.26.208.326Z"/><path class="bo" d="M363.463,115.908c0-.548-.1-1.173-1.1-1.173a3.6,3.6,0,0,0-1.447.339.56.56,0,0,1-.2.078.109.109,0,0,1-.1-.065l-.2-.522c-.065-.182.117-.261.273-.326a4.716,4.716,0,0,1,1.786-.378c1.3,0,1.969.626,1.969,1.786v2.96a2.887,2.887,0,0,0,.157.938,3.1,3.1,0,0,0,.182.365c.04.052.052.079.052.1s-.039.065-.078.091l-.548.339c-.091.052-.169.091-.338-.209a2.084,2.084,0,0,1-.248-.586l-.013-.039-.052.052a2.362,2.362,0,0,1-1.761.821,1.676,1.676,0,0,1-1.759-1.838,2.047,2.047,0,0,1,1.838-2.086,7.565,7.565,0,0,1,1.369-.183h.208Zm0,1.278h-.2c-.613,0-2.23.1-2.23,1.421a.962.962,0,0,0,.939,1.069,2.408,2.408,0,0,0,1.408-.73l.078-.078Z"/><path class="bo" d="M371.506,120.145c0,.078-.014.157-.157.157h-.678c-.144,0-.156-.079-.156-.157v-5.293h-1.6v.169c0,.861-.1,2.438-.17,3.051a2.572,2.572,0,0,1-1.186,2.242,1.683,1.683,0,0,1-.743.17h-.078a.153.153,0,0,1-.144-.143l-.13-.509c-.052-.208.1-.208.2-.221l.117-.014c.248-.025.795-.13,1-1.173a28.149,28.149,0,0,0,.195-3.794v-.4c0-.143.013-.182.183-.182h3.181c.156,0,.17.13.17.195Z"/><path class="bo" d="M376.445,120.145c0,.078-.013.157-.157.157h-.678c-.143,0-.156-.079-.156-.157v-5.254h-1.643c-.143,0-.156-.078-.156-.156V114.2c0-.143.078-.156.156-.156h4.459c.209,0,.144.156.13.195l-.169.509a.184.184,0,0,1-.208.143h-1.578Z"/><path class="bo" d="M380.445,114.2c0-.1.039-.143.092-.156l.287-.066.417-.1a.418.418,0,0,1,.1-.013c.091,0,.091.091.091.117v3.534l-.039,1.277h.039c.418-.821.535-1.03.626-1.2l1.995-3.481a.1.1,0,0,1,.078-.065l.7-.17a.418.418,0,0,1,.1-.013c.092,0,.092.091.092.117v6.167c0,.144-.079.157-.157.157H384.2c-.078,0-.156-.013-.156-.157v-3.311l.039-1.265h-.039c-.391.782-.6,1.147-.626,1.187l-1.995,3.48a.138.138,0,0,1-.143.066H380.6c-.143,0-.157-.079-.157-.157Z"/><path class="bo" d="M389.1,120.145c0,.078-.012.157-.156.157h-.678c-.143,0-.156-.079-.156-.157V114.2c0-.1.039-.143.091-.156l.287-.066.417-.1a.423.423,0,0,1,.1-.013c.091,0,.091.091.091.117v2.7h2.517V114.2c0-.1.039-.143.091-.156l.7-.17a.418.418,0,0,1,.1-.013c.091,0,.091.091.091.117v6.167c0,.078-.012.157-.156.157h-.678c-.078,0-.156-.013-.156-.157v-2.66H389.1Z"/><path class="bo" d="M395.682,114.239c0-.065.013-.195.169-.195h3.156c.2,0,.156.13.143.221l-.1.509a.177.177,0,0,1-.2.143h-2.177v5.228c0,.078-.013.157-.157.157h-.678c-.143,0-.156-.079-.156-.157Z"/><path class="bo" d="M405.733,117.172c0,2.608-1.474,3.312-2.6,3.312s-2.594-.7-2.594-3.312,1.473-3.311,2.594-3.311S405.733,114.565,405.733,117.172Zm-4.12,0c0,.678.065,2.5,1.525,2.5s1.525-1.826,1.525-2.5-.064-2.5-1.525-2.5S401.613,116.5,401.613,117.172Z"/><path class="bo" d="M410.607,114.044c.691,0,1.891.143,1.891,1.616a1.363,1.363,0,0,1-.861,1.33,1.431,1.431,0,0,1,1.108,1.513c0,1.094-.782,1.8-2.073,1.8h-2.125c-.143,0-.156-.079-.156-.157V114.2c0-.143.078-.156.156-.156Zm-1.226,2.594h1.2a.9.9,0,0,0,.978-.939c0-.573-.4-.847-1.017-.847h-1.161Zm0,2.855h1.226a1.022,1.022,0,0,0,1.147-1.017c0-.925-.7-1.03-1.147-1.03h-1.226Z"/><path class="bo" d="M418.414,115.908c0-.548-.1-1.173-1.094-1.173a3.6,3.6,0,0,0-1.448.339.565.565,0,0,1-.2.078.106.106,0,0,1-.1-.065l-.2-.522c-.065-.182.117-.261.274-.326a4.708,4.708,0,0,1,1.785-.378c1.3,0,1.969.626,1.969,1.786v2.96a2.887,2.887,0,0,0,.157.938,2.96,2.96,0,0,0,.183.365c.039.052.052.079.052.1s-.04.065-.079.091l-.547.339c-.091.052-.17.091-.339-.209a2.113,2.113,0,0,1-.248-.586l-.013-.039-.052.052a2.362,2.362,0,0,1-1.76.821,1.677,1.677,0,0,1-1.76-1.838,2.047,2.047,0,0,1,1.838-2.086,7.564,7.564,0,0,1,1.369-.183h.208Zm0,1.278h-.2c-.613,0-2.23.1-2.23,1.421a.962.962,0,0,0,.939,1.069,2.4,2.4,0,0,0,1.408-.73l.078-.078Z"/><path class="bo" d="M426.261,114.044c.143,0,.156.078.156.156v5.945c0,.144-.078.157-.156.157h-.678c-.144,0-.156-.079-.156-.157v-2.516h-.705c-.378,0-.665.039-.847.691l-.209.756c-.195.7-.3,1.069-.795,1.278a1.95,1.95,0,0,1-.8.13c-.065,0-.157,0-.183-.1l-.169-.587c-.052-.169.039-.169.156-.182l.157-.026a.874.874,0,0,0,.378-.131.851.851,0,0,0,.208-.365l.3-.978a1.174,1.174,0,0,1,.626-.769V117.3a1.508,1.508,0,0,1-1.291-1.525c0-.4.144-1.734,2.256-1.734Zm-.834.808h-.9c-.261,0-1.278,0-1.278.952,0,.5.313,1.017,1.278,1.017h.9Z"/><path class="bo" d="M332,127.273c0-.065.013-.195.17-.195h3.155c.2,0,.156.13.143.221l-.1.509a.175.175,0,0,1-.2.143h-2.178v5.228c0,.078-.013.157-.156.157h-.678c-.144,0-.157-.079-.157-.157Z"/><path class="bo" d="M337.825,128.772a2.235,2.235,0,0,0-.3-1.212.387.387,0,0,1-.092-.183.088.088,0,0,1,.066-.091l.56-.352a.153.153,0,0,1,.222.027,1.625,1.625,0,0,1,.352.7l.1-.078a2.943,2.943,0,0,1,1.708-.691c.652,0,2.138.326,2.138,3.272,0,2.973-1.525,3.351-2.347,3.351a2.61,2.61,0,0,1-1.421-.443v2.659a.147.147,0,0,1-.1.157l-.626.156c-.091.027-.26.079-.26-.117Zm.99,3.443a2.933,2.933,0,0,0,1.369.43c1.265,0,1.33-1.226,1.33-2.5,0-1.174-.091-2.373-1.29-2.373a2.646,2.646,0,0,0-1.409.638Z"/><path class="bo" d="M349.622,127.273a.155.155,0,0,1,.078.078.249.249,0,0,1-.013.17l-1.6,5.332a16.162,16.162,0,0,1-.8,2.269,1.675,1.675,0,0,1-1.539.952,2.465,2.465,0,0,1-.69-.105,3.786,3.786,0,0,1-.835-.378c-.143-.091-.117-.183-.091-.247l.261-.522a.089.089,0,0,1,.091-.065c.065,0,.13.065.234.13a2.056,2.056,0,0,0,1.005.378.735.735,0,0,0,.4-.117,1.814,1.814,0,0,0,.6-.991l.274-.821h-.469c-.144,0-.157-.079-.17-.118l-2.047-5.749c-.052-.144.039-.183.079-.2l.495-.195.118-.053a.742.742,0,0,1,.156-.039.129.129,0,0,1,.13.105l1.643,4.928c.156.482.208.73.247.886l.014.052h.026a6.574,6.574,0,0,1,.2-.912l1.3-4.954a.137.137,0,0,1,.13-.105.326.326,0,0,1,.131.027Z"/><path class="bo" d="M352.892,133.179c0,.078-.013.157-.156.157h-.678c-.143,0-.157-.079-.157-.157v-5.945c0-.143.079-.156.157-.156h4.054c.144,0,.157.078.157.156v5.945c0,.144-.078.157-.157.157h-.677c-.079,0-.157-.013-.157-.157v-5.293h-2.386Z"/><path class="bo" d="M360.334,133.179c0,.078-.013.157-.156.157H359.5c-.143,0-.157-.079-.157-.157v-5.945c0-.143.079-.156.157-.156h4.054c.144,0,.157.078.157.156v5.945c0,.144-.078.157-.157.157h-.677c-.079,0-.157-.013-.157-.157v-5.293h-2.386Z"/><path class="bo" d="M369.719,128.942c0-.547-.1-1.173-1.1-1.173a3.619,3.619,0,0,0-1.447.338.549.549,0,0,1-.2.079.107.107,0,0,1-.1-.065l-.2-.522c-.066-.182.117-.261.273-.326a4.736,4.736,0,0,1,1.786-.378c1.3,0,1.969.626,1.969,1.786v2.96a2.882,2.882,0,0,0,.157.938,3.1,3.1,0,0,0,.182.365c.04.052.052.079.052.1s-.039.065-.078.091l-.547.339c-.092.052-.17.091-.339-.209a2.085,2.085,0,0,1-.248-.586l-.013-.039-.052.052a2.363,2.363,0,0,1-1.761.821,1.676,1.676,0,0,1-1.759-1.838,2.047,2.047,0,0,1,1.838-2.086,7.565,7.565,0,0,1,1.369-.183h.208Zm0,1.278h-.2c-.613,0-2.23.1-2.23,1.421a.962.962,0,0,0,.939,1.069,2.4,2.4,0,0,0,1.408-.73l.078-.078Z"/><rect class="bp" width="105.136" height="0.869" transform="translate(331.171 106.102)"/></g></svg>