<svg xmlns="http://www.w3.org/2000/svg" width="26.472" height="16.239" viewBox="0 0 26.472 16.239"><defs><style>.a{fill:#fff;}</style></defs><g transform="translate(-1417.997 -3406.879)"><path class="a" d="M1444.237,3420.719l-.37-.6a15.933,15.933,0,0,0-2.6-3.219l-1.238-1.179a.324.324,0,0,1-.042-.422l1.69-2.408a10.676,10.676,0,0,0,.668-1.086l1.444-2.7a1.506,1.506,0,0,0-1.327-2.216l-3.124,0h0a1.65,1.65,0,0,0-1.511.986l-.331.754a18.64,18.64,0,0,1-3.427,5.217v-5.506a1.453,1.453,0,0,0-1.452-1.452h-4.426a1.318,1.318,0,0,0-1.07,2.086l.31.432a2.46,2.46,0,0,1,.464,1.442v4.022a16.038,16.038,0,0,1-1.773-2.484,23.281,23.281,0,0,1-1.77-4.2,1.852,1.852,0,0,0-1.772-1.3h-3.165a1.414,1.414,0,0,0-1.361,1.8l.59,2.095a19.328,19.328,0,0,0,1.479,3.717.729.729,0,0,0,1.292-.677,17.888,17.888,0,0,1-1.367-3.435l-.574-2.039h3.106a.4.4,0,0,1,.381.28,24.83,24.83,0,0,0,1.893,4.481,17.939,17.939,0,0,0,2.325,3.154,1.251,1.251,0,0,0,2.174-.846v-4.567a3.913,3.913,0,0,0-.737-2.293l-.15-.209h4.145v5.849a1.251,1.251,0,0,0,1.771,1.138l.3-.137a1.173,1.173,0,0,0,.366-.262,20.129,20.129,0,0,0,3.783-5.719l.331-.754a.191.191,0,0,1,.175-.114h0l3.125,0a.04.04,0,0,1,.04.023.039.039,0,0,1,0,.046l-1.443,2.7a9.084,9.084,0,0,1-.576.936l-1.689,2.408a1.772,1.772,0,0,0,.23,2.317l1.237,1.178a14.509,14.509,0,0,1,2.363,2.925l.37.6a.109.109,0,0,1,0,.119.108.108,0,0,1-.1.06h-2.7a1.294,1.294,0,0,1-.925-.391l-2.7-2.773a4.62,4.62,0,0,0-2.333-1.3,1.342,1.342,0,0,0-1.631,1.312v2.725a.425.425,0,0,1-.425.425,9.627,9.627,0,0,1-5.817-1.969,17.862,17.862,0,0,1-1.9-1.677.729.729,0,0,0-1.042,1.021,19.338,19.338,0,0,0,2.052,1.815,11.1,11.1,0,0,0,6.7,2.269,1.886,1.886,0,0,0,1.884-1.884v-2.578a3.171,3.171,0,0,1,1.461.856l2.7,2.773a2.766,2.766,0,0,0,1.971.833h2.7a1.576,1.576,0,0,0,1.344-2.4Z"/><path class="a" d="M1422.742,3415.963l-.008-.012a.729.729,0,1,0-1.185.85l0,.007.6-.421-.592.425a.729.729,0,1,0,1.185-.849Z"/></g></svg>